<svg xmlns="http://www.w3.org/2000/svg" xmlns:xlink="http://www.w3.org/1999/xlink" width="500" zoomAndPan="magnify" viewBox="0 0 375 374.999991" height="500" preserveAspectRatio="xMidYMid meet" version="1.0"><defs><clipPath id="4da7aee242"><path d="M 20.367188 37.5 L 343.617188 37.5 L 343.617188 347.25 L 20.367188 347.25 Z M 20.367188 37.5 " clip-rule="nonzero"/></clipPath><clipPath id="ddfc6276af"><path d="M 105.9375 54.320312 C 113.144531 54.320312 118.988281 60.164062 118.988281 67.371094 C 118.988281 74.582031 113.144531 80.421875 105.9375 80.421875 C 98.726562 80.421875 92.882812 74.582031 92.882812 67.371094 C 92.882812 60.164062 98.726562 54.320312 105.9375 54.320312 Z M 115.804688 119.28125 C 122.117188 119.28125 127.234375 124.402344 127.234375 130.714844 C 127.234375 137.027344 122.117188 142.144531 115.804688 142.144531 C 109.488281 142.144531 104.371094 137.027344 104.371094 130.714844 C 104.371094 124.402344 109.488281 119.28125 115.804688 119.28125 Z M 37.492188 95.914062 C 46.949219 95.914062 54.617188 103.582031 54.617188 113.035156 C 54.617188 122.496094 46.949219 130.167969 37.492188 130.167969 C 28.03125 130.167969 20.367188 122.496094 20.367188 113.035156 C 20.367188 103.582031 28.03125 95.914062 37.492188 95.914062 Z M 161.324219 230.371094 C 154.953125 230.371094 149.785156 235.535156 149.785156 241.910156 C 149.785156 248.28125 154.953125 253.445312 161.324219 253.445312 C 167.695312 253.445312 172.863281 248.28125 172.863281 241.910156 C 172.863281 235.535156 167.699219 230.371094 161.324219 230.371094 Z M 92.628906 184.945312 C 101.644531 184.945312 108.949219 192.253906 108.949219 201.269531 C 108.949219 210.28125 101.644531 217.589844 92.628906 217.589844 C 83.613281 217.589844 76.308594 210.28125 76.308594 201.269531 C 76.308594 192.253906 83.613281 184.945312 92.628906 184.945312 Z M 254.949219 92.75 C 250.019531 94.0625 244.714844 95.90625 239.21875 98.242188 C 239.542969 99.523438 239.714844 100.859375 239.714844 102.238281 C 239.714844 102.753906 239.691406 103.261719 239.640625 103.765625 C 240.148438 103.949219 240.648438 104.136719 241.144531 104.324219 C 242.921875 105 244.679688 105.703125 246.410156 106.4375 C 267.507812 115.355469 285.167969 128.445312 297.078125 143.277344 C 295.253906 135.886719 292.464844 128.730469 288.800781 121.898438 C 283.863281 112.6875 277.328125 104.058594 269.441406 96.234375 C 267.832031 97.234375 265.945312 97.8125 263.914062 97.8125 C 260.113281 97.8125 256.78125 95.785156 254.949219 92.75 Z M 196.835938 57.925781 C 205.523438 65.558594 213.230469 75.179688 219.691406 86.339844 C 220.878906 86.0625 222.121094 85.917969 223.394531 85.917969 C 228.621094 85.917969 233.277344 88.375 236.265625 92.203125 C 242.277344 89.632812 248.097656 87.609375 253.511719 86.179688 C 253.621094 85.195312 253.871094 84.25 254.234375 83.363281 C 252.457031 82.078125 250.640625 80.828125 248.78125 79.613281 C 234.125 70.027344 216.902344 62.636719 197.886719 58.167969 Z M 209.695312 239.367188 C 212.371094 234.953125 214.886719 230.445312 217.214844 225.871094 C 218.269531 223.785156 219.289062 221.691406 220.265625 219.582031 C 225.289062 208.730469 229.1875 197.585938 231.558594 186.511719 C 226.023438 184.019531 222.164062 178.453125 222.164062 171.984375 C 222.164062 164.621094 227.167969 158.417969 233.960938 156.605469 C 233.886719 155.519531 233.792969 154.441406 233.679688 153.363281 C 232.753906 144.640625 231.242188 136.207031 229.203125 128.160156 C 229.015625 127.425781 228.828125 126.695312 228.636719 125.964844 C 227.9375 123.363281 227.1875 120.804688 226.382812 118.289062 C 225.414062 118.46875 224.414062 118.5625 223.394531 118.5625 C 218.730469 118.5625 214.527344 116.609375 211.554688 113.476562 C 210.875 113.941406 210.199219 114.40625 209.523438 114.882812 C 208.65625 115.492188 207.796875 116.117188 206.941406 116.742188 C 195.800781 124.917969 185.320312 134.773438 176.945312 146.015625 C 179.875 148.917969 181.691406 152.945312 181.691406 157.394531 C 181.691406 163.664062 178.089844 169.089844 172.847656 171.726562 L 172.898438 171.890625 C 179.957031 193.617188 193.359375 217.847656 209.695312 239.367188 Z M 287.285156 208.40625 C 288.085938 207.121094 288.867188 205.824219 289.636719 204.511719 C 294.523438 194.585938 297.523438 184.667969 298.816406 174.933594 C 299.332031 171.03125 299.574219 167.15625 299.558594 163.316406 C 299.550781 161.761719 299.503906 160.210938 299.410156 158.667969 C 298.761719 157.5 298.070312 156.339844 297.339844 155.183594 C 286.554688 138.097656 267.503906 122.640625 243.800781 112.625 C 241.785156 111.773438 239.730469 110.960938 237.648438 110.1875 C 236.417969 112.394531 234.691406 114.28125 232.621094 115.703125 C 234.039062 120.101562 235.304688 124.628906 236.402344 129.269531 C 237.566406 134.203125 238.539062 139.261719 239.316406 144.433594 C 239.726562 147.140625 240.074219 149.886719 240.371094 152.65625 C 240.496094 153.855469 240.597656 155.0625 240.683594 156.273438 C 248.238281 157.515625 254.007812 164.074219 254.007812 171.988281 C 254.007812 174.335938 253.5 176.570312 252.582031 178.578125 C 257.882812 183.125 263.167969 188.40625 268.355469 194.265625 C 270.875 197.113281 273.375 200.09375 275.839844 203.195312 C 277.226562 204.941406 278.601562 206.722656 279.964844 208.535156 C 281.171875 208.117188 282.464844 207.886719 283.816406 207.886719 C 285.023438 207.886719 286.1875 208.070312 287.285156 208.410156 Z M 220.941406 263.265625 C 219.296875 261.488281 217.667969 259.679688 216.058594 257.835938 C 214.242188 255.75 212.441406 253.621094 210.671875 251.457031 L 210.273438 250.964844 C 209.667969 251.871094 209.058594 252.773438 208.441406 253.667969 C 198.765625 267.726562 187.640625 280.515625 176.097656 291.085938 C 190.484375 287.335938 205.515625 281.097656 220.125 272.621094 C 219.71875 271.441406 219.496094 270.175781 219.496094 268.859375 C 219.496094 266.828125 220.019531 264.921875 220.941406 263.265625 Z M 274.503906 212.46875 C 270.925781 207.710938 267.269531 203.203125 263.570312 199.007812 C 258.617188 193.386719 253.585938 188.320312 248.5625 183.976562 C 245.773438 186.414062 242.128906 187.894531 238.136719 187.90625 C 235.453125 200.417969 230.941406 212.96875 225.101562 225.09375 C 224.488281 226.363281 223.859375 227.632812 223.21875 228.898438 C 220.429688 234.382812 217.375 239.773438 214.105469 245.023438 C 214.558594 245.585938 215.007812 246.144531 215.464844 246.703125 C 217.320312 248.980469 219.207031 251.21875 221.117188 253.414062 C 222.652344 255.167969 224.203125 256.894531 225.761719 258.589844 C 227.34375 257.777344 229.132812 257.320312 231.035156 257.320312 C 234.03125 257.320312 236.761719 258.460938 238.8125 260.335938 C 242.261719 257.78125 245.660156 255.101562 248.984375 252.292969 C 252.863281 249.019531 256.652344 245.570312 260.316406 241.960938 C 265.21875 237.125 269.902344 231.992188 274.304688 226.574219 C 272.886719 224.632812 272.050781 222.242188 272.050781 219.652344 C 272.050781 216.945312 272.96875 214.453125 274.503906 212.46875 Z M 264.390625 298.265625 C 255.214844 293.484375 245.90625 286.824219 236.832031 278.835938 C 235.128906 279.828125 233.148438 280.398438 231.035156 280.398438 C 228.429688 280.398438 226.023438 279.535156 224.09375 278.074219 C 208.582031 287.144531 192.566406 293.78125 177.261719 297.722656 C 177.21875 298.601562 177.097656 299.457031 176.898438 300.28125 L 222.652344 324.644531 C 222.785156 324.5 222.917969 324.355469 223.054688 324.222656 L 223.066406 324.207031 C 225.503906 321.773438 228.867188 320.265625 232.574219 320.265625 C 233.273438 320.265625 233.957031 320.320312 234.628906 320.421875 C 243.0625 305.847656 255.789062 300.339844 264.390625 298.265625 Z M 312.027344 278.875 C 310.113281 274.195312 308.042969 269.496094 305.835938 264.8125 C 301.261719 255.105469 296.097656 245.472656 290.519531 236.253906 C 289.4375 234.460938 288.335938 232.679688 287.21875 230.921875 C 286.140625 231.246094 285 231.417969 283.816406 231.417969 C 282.351562 231.417969 280.945312 231.148438 279.648438 230.660156 C 275.054688 236.328125 270.160156 241.699219 265.027344 246.753906 C 261.277344 250.457031 257.402344 253.984375 253.421875 257.347656 C 249.773438 260.425781 246.046875 263.363281 242.25 266.144531 C 242.460938 267.015625 242.574219 267.925781 242.574219 268.859375 C 242.574219 270.679688 242.148438 272.402344 241.398438 273.9375 C 252.53125 283.753906 263.933594 291.410156 274.839844 295.753906 C 280.230469 297.90625 285.496094 299.242188 290.550781 299.632812 C 291.238281 299.6875 291.925781 299.726562 292.601562 299.742188 C 295.6875 299.589844 299.191406 299.113281 303.242188 298.144531 C 312.511719 295.929688 312.660156 285.742188 312.027344 278.875 Z M 310.015625 175.78125 C 307.363281 183.808594 304.117188 191.519531 300.363281 198.898438 C 298.863281 201.851562 297.28125 204.75 295.625 207.59375 C 294.828125 209.203125 293.988281 210.816406 293.101562 212.425781 C 294.65625 214.421875 295.582031 216.929688 295.582031 219.65625 C 295.582031 222.527344 294.550781 225.164062 292.835938 227.207031 L 292.882812 227.285156 C 300.550781 239.382812 307.550781 252.316406 313.488281 265.3125 C 314.511719 264.070312 315.550781 263.542969 315.75 263.457031 C 316.902344 262.863281 317.742188 262.136719 318.296875 261.339844 C 318.8125 260.59375 319.089844 259.765625 319.128906 258.929688 C 319.171875 258.054688 318.964844 257.140625 318.523438 256.261719 C 317.980469 255.1875 317.089844 254.171875 315.878906 253.328125 C 315.238281 252.886719 314.746094 252.222656 314.535156 251.40625 C 314.070312 249.609375 315.148438 247.773438 316.945312 247.308594 C 322.332031 245.910156 322.558594 242.359375 321.714844 239.121094 C 321.285156 237.476562 320.601562 235.773438 320.023438 234.335938 C 319.75 233.660156 319.5 233.035156 319.277344 232.425781 C 316.722656 225.359375 323.128906 222.207031 331.117188 218.269531 C 332.265625 217.707031 333.457031 217.121094 334.671875 216.492188 C 336.769531 215.410156 337.171875 214.003906 336.632812 212.4375 C 335.707031 209.734375 333.03125 206.460938 330.023438 203.136719 C 326.242188 198.953125 321.015625 192.582031 316.667969 186.460938 C 313.980469 182.679688 311.59375 178.945312 310.015625 175.78125 Z M 292.117188 89.90625 C 283.875 79.203125 274.175781 71.378906 263.589844 65.808594 C 246.953125 57.050781 228.054688 53.78125 209.144531 53.601562 C 208.699219 53.601562 207.984375 53.597656 207.074219 53.601562 C 223.871094 58.324219 239.183594 65.285156 252.46875 73.976562 C 254.59375 75.367188 256.664062 76.800781 258.6875 78.277344 C 260.226562 77.386719 262.007812 76.878906 263.914062 76.878906 C 268.71875 76.878906 272.769531 80.117188 274 84.53125 C 276.144531 84.796875 278.1875 85.160156 280.140625 85.605469 C 284.609375 86.625 288.585938 88.097656 292.117188 89.90625 Z M 305.4375 111.972656 C 305.054688 111.65625 304.734375 111.25 304.515625 110.765625 C 304.292969 110.273438 304.066406 109.785156 303.835938 109.296875 C 303.289062 108.457031 302.710938 107.628906 302.09375 106.820312 C 297.074219 100.21875 289.578125 94.664062 278.640625 92.160156 L 278.050781 92.03125 C 276.757812 91.753906 275.417969 91.511719 274.035156 91.320312 C 275.480469 92.746094 276.878906 94.203125 278.234375 95.679688 C 284.796875 102.832031 290.339844 110.5625 294.726562 118.738281 C 301.125 130.667969 305.042969 143.527344 306.035156 156.902344 C 306.226562 159.507812 306.308594 162.136719 306.277344 164.78125 C 307.1875 161.339844 307.988281 157.84375 308.664062 154.296875 C 308.847656 153.320312 309.023438 152.347656 309.191406 151.363281 L 309.234375 151.121094 L 309.25 151.003906 L 309.273438 150.882812 L 309.46875 149.679688 C 309.488281 149.550781 309.519531 149.421875 309.550781 149.300781 C 310.171875 145.871094 310.765625 143.292969 310.9375 142.546875 C 310.953125 142.484375 310.964844 142.417969 310.976562 142.355469 C 311.179688 141.472656 311.335938 140.382812 311.433594 139.125 C 311.507812 138.214844 311.546875 137.214844 311.546875 136.136719 C 311.535156 129.507812 310.035156 120.347656 305.4375 111.976562 Z M 164.5 88.386719 C 168.800781 88.386719 172.507812 90.933594 174.191406 94.601562 C 175.640625 94.492188 177.09375 94.40625 178.535156 94.335938 C 188.734375 93.859375 198.730469 94.402344 208.382812 95.820312 C 209.511719 93.183594 211.3125 90.90625 213.570312 89.203125 C 206.796875 77.621094 198.632812 67.859375 189.429688 60.480469 C 187.140625 62.460938 184.15625 63.660156 180.894531 63.660156 C 173.6875 63.660156 167.84375 57.820312 167.84375 50.613281 C 167.84375 43.40625 173.6875 37.566406 180.894531 37.566406 C 186.832031 37.566406 191.847656 41.539062 193.425781 46.96875 C 200.089844 46.894531 207.207031 46.867188 209.195312 46.886719 C 229.09375 47.074219 249.039062 50.546875 266.722656 59.855469 C 284.042969 68.972656 299.128906 83.625 309.796875 106.160156 C 310.144531 106.710938 310.480469 107.265625 310.804688 107.824219 C 316.429688 117.582031 318.25 128.386719 318.257812 136.136719 C 318.265625 139.242188 317.980469 141.902344 317.53125 143.855469 C 317.515625 143.925781 317.5 143.996094 317.476562 144.066406 C 317.320312 144.738281 316.746094 147.222656 316.136719 150.46875 C 316.128906 150.558594 316.121094 150.644531 316.105469 150.730469 C 315.867188 152.21875 315.613281 153.699219 315.332031 155.167969 C 314.453125 161.007812 313.898438 167.578125 315.15625 170.824219 C 316.316406 173.835938 318.984375 178.109375 322.148438 182.5625 C 326.375 188.515625 331.394531 194.644531 335 198.632812 C 338.539062 202.539062 341.71875 206.5 343.007812 210.25 C 344.6875 215.140625 343.667969 219.421875 337.757812 222.46875 C 336.53125 223.105469 335.289062 223.710938 334.097656 224.300781 C 329.097656 226.761719 325.09375 228.738281 325.601562 230.132812 C 325.765625 230.59375 326.007812 231.191406 326.265625 231.832031 C 326.910156 233.4375 327.675781 235.335938 328.222656 237.433594 C 329.589844 242.6875 329.539062 248.351562 323.691406 251.804688 C 324.003906 252.269531 324.285156 252.75 324.53125 253.238281 C 325.496094 255.152344 325.945312 257.210938 325.84375 259.246094 C 325.746094 261.320312 325.082031 263.347656 323.824219 265.160156 C 322.636719 266.875 320.9375 268.371094 318.703125 269.496094 L 318.597656 269.546875 C 318.597656 269.550781 317.957031 269.785156 318.097656 272.480469 C 318.121094 272.910156 318.226562 273.796875 318.355469 274.867188 C 319.367188 283.085938 321.523438 300.675781 304.796875 304.675781 C 295.371094 306.929688 288.570312 306.828125 283.195312 306.015625 C 280.214844 305.566406 277.671875 304.898438 275.363281 304.289062 C 274.667969 304.109375 274 303.933594 273.257812 303.75 C 272.691406 303.765625 271.480469 303.824219 269.820312 304.054688 C 268.011719 304.304688 265.664062 304.769531 263.035156 305.605469 C 256.117188 307.808594 247.226562 312.621094 240.867188 323.132812 C 241.292969 323.46875 241.699219 323.824219 242.085938 324.210938 L 242.089844 324.214844 L 242.09375 324.222656 C 244.53125 326.664062 246.039062 330.027344 246.039062 333.730469 C 246.039062 337.433594 244.53125 340.792969 242.09375 343.234375 L 242.085938 343.25 C 239.640625 345.6875 236.277344 347.195312 232.574219 347.195312 C 228.867188 347.195312 225.503906 345.6875 223.066406 343.25 L 223.054688 343.238281 C 220.617188 340.800781 219.109375 337.4375 219.109375 333.730469 C 219.109375 332.640625 219.238281 331.578125 219.484375 330.5625 L 173.730469 306.207031 C 173.597656 306.347656 173.464844 306.488281 173.328125 306.625 L 173.324219 306.632812 L 173.316406 306.640625 C 170.875 309.074219 167.511719 310.582031 163.808594 310.582031 C 160.097656 310.582031 156.738281 309.074219 154.296875 306.640625 L 154.289062 306.628906 C 151.847656 304.1875 150.339844 300.828125 150.339844 297.121094 C 150.339844 293.410156 151.847656 290.046875 154.289062 287.609375 L 154.296875 287.597656 C 156.738281 285.164062 160.097656 283.65625 163.808594 283.65625 C 166.6875 283.65625 169.359375 284.5625 171.554688 286.117188 C 183.941406 274.78125 195.839844 260.796875 205.878906 245.425781 C 191.878906 227.308594 179.839844 207.125 171.738281 187.898438 C 169.671875 182.992188 167.859375 178.144531 166.335938 173.40625 C 166.113281 173.417969 165.890625 173.425781 165.664062 173.425781 C 156.8125 173.425781 149.632812 166.25 149.632812 157.394531 C 149.632812 148.542969 156.8125 141.367188 165.664062 141.367188 C 167.636719 141.367188 169.527344 141.726562 171.273438 142.375 C 172.609375 140.570312 174 138.792969 175.429688 137.054688 C 182.628906 128.328125 190.976562 120.5 199.792969 113.703125 C 201.726562 112.214844 203.679688 110.773438 205.652344 109.382812 C 206.441406 108.824219 207.230469 108.277344 208.023438 107.738281 C 207.429688 106.074219 207.09375 104.289062 207.074219 102.425781 C 197.691406 101.070312 187.964844 100.578125 178.042969 101.097656 C 177.003906 101.152344 175.960938 101.21875 174.917969 101.296875 C 173.882812 106.097656 169.613281 109.695312 164.5 109.695312 C 158.613281 109.695312 153.84375 104.925781 153.84375 99.039062 C 153.84375 93.152344 158.613281 88.382812 164.5 88.382812 Z M 164.5 88.386719 " clip-rule="evenodd"/></clipPath><linearGradient x1="-587.405677" gradientTransform="matrix(0.0482104, 0, 0, 0.0482104, 20.367417, 37.567019)" y1="5293.805355" x2="7318.577291" gradientUnits="userSpaceOnUse" y2="1178.896773" id="a0b28053fe"><stop stop-opacity="1" stop-color="rgb(45.098877%, 45.098877%, 45.098877%)" offset="0"/><stop stop-opacity="1" stop-color="rgb(45.098877%, 45.098877%, 45.098877%)" offset="0.25"/><stop stop-opacity="1" stop-color="rgb(45.098877%, 45.098877%, 45.098877%)" offset="0.332687"/><stop stop-opacity="1" stop-color="rgb(45.098877%, 45.098877%, 45.098877%)" offset="0.375"/><stop stop-opacity="1" stop-color="rgb(45.098877%, 45.098877%, 45.098877%)" offset="0.4375"/><stop stop-opacity="1" stop-color="rgb(45.115662%, 45.098877%, 45.088196%)" offset="0.453125"/><stop stop-opacity="1" stop-color="rgb(45.965576%, 45.111084%, 44.578552%)" offset="0.457031"/><stop stop-opacity="1" stop-color="rgb(46.798706%, 45.123291%, 44.07959%)" offset="0.460938"/><stop stop-opacity="1" stop-color="rgb(47.631836%, 45.135498%, 43.579102%)" offset="0.464844"/><stop stop-opacity="1" stop-color="rgb(48.464966%, 45.147705%, 43.080139%)" offset="0.46875"/><stop stop-opacity="1" stop-color="rgb(49.298096%, 45.158386%, 42.579651%)" offset="0.472656"/><stop stop-opacity="1" stop-color="rgb(50.131226%, 45.170593%, 42.080688%)" offset="0.476562"/><stop stop-opacity="1" stop-color="rgb(50.96283%, 45.1828%, 41.5802%)" offset="0.480469"/><stop stop-opacity="1" stop-color="rgb(51.795959%, 45.195007%, 41.081238%)" offset="0.484375"/><stop stop-opacity="1" stop-color="rgb(52.629089%, 45.205688%, 40.58075%)" offset="0.488281"/><stop stop-opacity="1" stop-color="rgb(53.462219%, 45.217896%, 40.081787%)" offset="0.492188"/><stop stop-opacity="1" stop-color="rgb(54.295349%, 45.230103%, 39.581299%)" offset="0.496094"/><stop stop-opacity="1" stop-color="rgb(55.128479%, 45.24231%, 39.082336%)" offset="0.5"/><stop stop-opacity="1" stop-color="rgb(55.960083%, 45.252991%, 38.581848%)" offset="0.503906"/><stop stop-opacity="1" stop-color="rgb(56.793213%, 45.265198%, 38.082886%)" offset="0.507812"/><stop stop-opacity="1" stop-color="rgb(57.626343%, 45.277405%, 37.582397%)" offset="0.511719"/><stop stop-opacity="1" stop-color="rgb(58.459473%, 45.289612%, 37.083435%)" offset="0.515625"/><stop stop-opacity="1" stop-color="rgb(59.291077%, 45.300293%, 36.582947%)" offset="0.519531"/><stop stop-opacity="1" stop-color="rgb(60.124207%, 45.3125%, 36.083984%)" offset="0.523438"/><stop stop-opacity="1" stop-color="rgb(60.957336%, 45.324707%, 35.583496%)" offset="0.527344"/><stop stop-opacity="1" stop-color="rgb(61.790466%, 45.336914%, 35.084534%)" offset="0.53125"/><stop stop-opacity="1" stop-color="rgb(62.623596%, 45.347595%, 34.584045%)" offset="0.535156"/><stop stop-opacity="1" stop-color="rgb(63.456726%, 45.359802%, 34.085083%)" offset="0.539062"/><stop stop-opacity="1" stop-color="rgb(64.28833%, 45.372009%, 33.584595%)" offset="0.542969"/><stop stop-opacity="1" stop-color="rgb(65.12146%, 45.384216%, 33.085632%)" offset="0.546875"/><stop stop-opacity="1" stop-color="rgb(65.95459%, 45.394897%, 32.585144%)" offset="0.550781"/><stop stop-opacity="1" stop-color="rgb(66.78772%, 45.407104%, 32.086182%)" offset="0.554688"/><stop stop-opacity="1" stop-color="rgb(67.62085%, 45.419312%, 31.585693%)" offset="0.558594"/><stop stop-opacity="1" stop-color="rgb(68.453979%, 45.431519%, 31.086731%)" offset="0.5625"/><stop stop-opacity="1" stop-color="rgb(69.285583%, 45.4422%, 30.586243%)" offset="0.566406"/><stop stop-opacity="1" stop-color="rgb(70.118713%, 45.454407%, 30.08728%)" offset="0.570312"/><stop stop-opacity="1" stop-color="rgb(70.951843%, 45.466614%, 29.586792%)" offset="0.574219"/><stop stop-opacity="1" stop-color="rgb(71.784973%, 45.478821%, 29.08783%)" offset="0.578125"/><stop stop-opacity="1" stop-color="rgb(72.616577%, 45.489502%, 28.587341%)" offset="0.582031"/><stop stop-opacity="1" stop-color="rgb(73.449707%, 45.501709%, 28.088379%)" offset="0.585938"/><stop stop-opacity="1" stop-color="rgb(74.282837%, 45.513916%, 27.587891%)" offset="0.589844"/><stop stop-opacity="1" stop-color="rgb(75.115967%, 45.526123%, 27.088928%)" offset="0.59375"/><stop stop-opacity="1" stop-color="rgb(75.949097%, 45.536804%, 26.58844%)" offset="0.597656"/><stop stop-opacity="1" stop-color="rgb(76.782227%, 45.549011%, 26.089478%)" offset="0.601562"/><stop stop-opacity="1" stop-color="rgb(77.613831%, 45.561218%, 25.588989%)" offset="0.605469"/><stop stop-opacity="1" stop-color="rgb(78.44696%, 45.573425%, 25.090027%)" offset="0.609375"/><stop stop-opacity="1" stop-color="rgb(79.28009%, 45.584106%, 24.589539%)" offset="0.613281"/><stop stop-opacity="1" stop-color="rgb(80.11322%, 45.596313%, 24.090576%)" offset="0.617188"/><stop stop-opacity="1" stop-color="rgb(80.94635%, 45.608521%, 23.590088%)" offset="0.621094"/><stop stop-opacity="1" stop-color="rgb(81.77948%, 45.620728%, 23.091125%)" offset="0.625"/><stop stop-opacity="1" stop-color="rgb(82.611084%, 45.631409%, 22.590637%)" offset="0.628906"/><stop stop-opacity="1" stop-color="rgb(83.444214%, 45.643616%, 22.091675%)" offset="0.632812"/><stop stop-opacity="1" stop-color="rgb(84.277344%, 45.655823%, 21.591187%)" offset="0.636719"/><stop stop-opacity="1" stop-color="rgb(85.110474%, 45.66803%, 21.092224%)" offset="0.640625"/><stop stop-opacity="1" stop-color="rgb(85.943604%, 45.678711%, 20.591736%)" offset="0.644531"/><stop stop-opacity="1" stop-color="rgb(86.776733%, 45.690918%, 20.092773%)" offset="0.648437"/><stop stop-opacity="1" stop-color="rgb(87.608337%, 45.703125%, 19.592285%)" offset="0.652344"/><stop stop-opacity="1" stop-color="rgb(88.441467%, 45.715332%, 19.093323%)" offset="0.65625"/><stop stop-opacity="1" stop-color="rgb(89.274597%, 45.726013%, 18.592834%)" offset="0.660156"/><stop stop-opacity="1" stop-color="rgb(90.107727%, 45.73822%, 18.093872%)" offset="0.664062"/><stop stop-opacity="1" stop-color="rgb(90.939331%, 45.750427%, 17.593384%)" offset="0.667969"/><stop stop-opacity="1" stop-color="rgb(91.772461%, 45.762634%, 17.094421%)" offset="0.671875"/><stop stop-opacity="1" stop-color="rgb(92.605591%, 45.773315%, 16.593933%)" offset="0.675781"/><stop stop-opacity="1" stop-color="rgb(93.438721%, 45.785522%, 16.094971%)" offset="0.679687"/><stop stop-opacity="1" stop-color="rgb(94.271851%, 45.797729%, 15.594482%)" offset="0.683594"/><stop stop-opacity="1" stop-color="rgb(95.10498%, 45.809937%, 15.09552%)" offset="0.6875"/><stop stop-opacity="1" stop-color="rgb(95.936584%, 45.820618%, 14.595032%)" offset="0.691406"/><stop stop-opacity="1" stop-color="rgb(96.769714%, 45.832825%, 14.096069%)" offset="0.695312"/><stop stop-opacity="1" stop-color="rgb(97.602844%, 45.845032%, 13.595581%)" offset="0.699219"/><stop stop-opacity="1" stop-color="rgb(98.435974%, 45.857239%, 13.096619%)" offset="0.703125"/><stop stop-opacity="1" stop-color="rgb(99.217224%, 45.921326%, 12.670898%)" offset="0.707031"/><stop stop-opacity="1" stop-color="rgb(100%, 45.986938%, 12.245178%)" offset="0.710937"/><stop stop-opacity="1" stop-color="rgb(100%, 46.859741%, 12.948608%)" offset="0.714844"/><stop stop-opacity="1" stop-color="rgb(100%, 47.73407%, 13.653564%)" offset="0.71875"/><stop stop-opacity="1" stop-color="rgb(100%, 48.606873%, 14.356995%)" offset="0.722656"/><stop stop-opacity="1" stop-color="rgb(100%, 49.481201%, 15.060425%)" offset="0.726562"/><stop stop-opacity="1" stop-color="rgb(100%, 50.354004%, 15.763855%)" offset="0.730469"/><stop stop-opacity="1" stop-color="rgb(100%, 51.228333%, 16.467285%)" offset="0.734375"/><stop stop-opacity="1" stop-color="rgb(100%, 52.102661%, 17.170715%)" offset="0.738281"/><stop stop-opacity="1" stop-color="rgb(100%, 52.97699%, 17.874146%)" offset="0.742187"/><stop stop-opacity="1" stop-color="rgb(100%, 53.849792%, 18.577576%)" offset="0.746094"/><stop stop-opacity="1" stop-color="rgb(100%, 54.724121%, 19.281006%)" offset="0.75"/><stop stop-opacity="1" stop-color="rgb(100%, 55.596924%, 19.984436%)" offset="0.753906"/><stop stop-opacity="1" stop-color="rgb(100%, 56.471252%, 20.687866%)" offset="0.757812"/><stop stop-opacity="1" stop-color="rgb(100%, 57.344055%, 21.391296%)" offset="0.761719"/><stop stop-opacity="1" stop-color="rgb(100%, 58.218384%, 22.096252%)" offset="0.765625"/><stop stop-opacity="1" stop-color="rgb(100%, 59.092712%, 22.799683%)" offset="0.769531"/><stop stop-opacity="1" stop-color="rgb(100%, 59.967041%, 23.503113%)" offset="0.773437"/><stop stop-opacity="1" stop-color="rgb(100%, 60.839844%, 24.206543%)" offset="0.777344"/><stop stop-opacity="1" stop-color="rgb(100%, 61.714172%, 24.909973%)" offset="0.78125"/><stop stop-opacity="1" stop-color="rgb(100%, 62.586975%, 25.613403%)" offset="0.785156"/><stop stop-opacity="1" stop-color="rgb(100%, 63.461304%, 26.316833%)" offset="0.789062"/><stop stop-opacity="1" stop-color="rgb(100%, 64.334106%, 27.020264%)" offset="0.792969"/><stop stop-opacity="1" stop-color="rgb(100%, 65.208435%, 27.723694%)" offset="0.796875"/><stop stop-opacity="1" stop-color="rgb(100%, 66.082764%, 28.427124%)" offset="0.800781"/><stop stop-opacity="1" stop-color="rgb(100%, 66.957092%, 29.13208%)" offset="0.804687"/><stop stop-opacity="1" stop-color="rgb(100%, 67.829895%, 29.83551%)" offset="0.808594"/><stop stop-opacity="1" stop-color="rgb(100%, 68.704224%, 30.53894%)" offset="0.8125"/><stop stop-opacity="1" stop-color="rgb(100%, 69.577026%, 31.242371%)" offset="0.816406"/><stop stop-opacity="1" stop-color="rgb(100%, 70.451355%, 31.945801%)" offset="0.820312"/><stop stop-opacity="1" stop-color="rgb(100%, 71.324158%, 32.649231%)" offset="0.824219"/><stop stop-opacity="1" stop-color="rgb(100%, 72.198486%, 33.352661%)" offset="0.828125"/><stop stop-opacity="1" stop-color="rgb(100%, 73.072815%, 34.056091%)" offset="0.832031"/><stop stop-opacity="1" stop-color="rgb(100%, 73.947144%, 34.759521%)" offset="0.835937"/><stop stop-opacity="1" stop-color="rgb(100%, 74.032593%, 34.829712%)" offset="0.84375"/><stop stop-opacity="1" stop-color="rgb(100%, 74.119568%, 34.899902%)" offset="0.875"/><stop stop-opacity="1" stop-color="rgb(100%, 74.119568%, 34.899902%)" offset="1"/></linearGradient></defs><g clip-path="url(#4da7aee242)"><g clip-path="url(#ddfc6276af)"><path fill="url(#a0b28053fe)" d="M 20.367188 37.566406 L 20.367188 347.195312 L 343.617188 347.195312 L 343.617188 37.566406 Z M 20.367188 37.566406 " fill-rule="nonzero"/></g></g></svg>