<svg xmlns="http://www.w3.org/2000/svg" xmlns:xlink="http://www.w3.org/1999/xlink" width="500" zoomAndPan="magnify" viewBox="0 0 375 374.999991" height="500" preserveAspectRatio="xMidYMid meet" version="1.0"><defs><filter x="0%" y="0%" width="100%" height="100%" id="1bb7ecafbb"><feColorMatrix values="0 0 0 0 1 0 0 0 0 1 0 0 0 0 1 0 0 0 1 0" color-interpolation-filters="sRGB"/></filter><g/><clipPath id="23e38c8a0e"><path d="M 0 85.5 L 375 85.5 L 375 289.5 L 0 289.5 Z M 0 85.5 " clip-rule="nonzero"/></clipPath><clipPath id="8c6e57054f"><path d="M 0 0.5 L 375 0.5 L 375 204.5 L 0 204.5 Z M 0 0.5 " clip-rule="nonzero"/></clipPath><clipPath id="a3fd8c3f50"><path d="M 90.117188 3.5 L 375 3.5 L 375 200.75 L 90.117188 200.75 Z M 90.117188 3.5 " clip-rule="nonzero"/></clipPath><linearGradient x1="112.081001" gradientTransform="matrix(0.749796, 0, 0, 0.748773, 6.079677, 75.917558)" y1="35" x2="492.027255" gradientUnits="userSpaceOnUse" y2="35" id="e705867d89"><stop stop-opacity="1" stop-color="rgb(100%, 87.059021%, 34.899902%)" offset="0"/><stop stop-opacity="1" stop-color="rgb(100%, 87.059021%, 34.899902%)" offset="0.25"/><stop stop-opacity="1" stop-color="rgb(100%, 87.046814%, 34.896851%)" offset="0.265625"/><stop stop-opacity="1" stop-color="rgb(100%, 86.862183%, 34.867859%)" offset="0.273438"/><stop stop-opacity="1" stop-color="rgb(100%, 86.51886%, 34.814453%)" offset="0.28125"/><stop stop-opacity="1" stop-color="rgb(100%, 86.175537%, 34.761047%)" offset="0.289062"/><stop stop-opacity="1" stop-color="rgb(100%, 85.830688%, 34.707642%)" offset="0.296875"/><stop stop-opacity="1" stop-color="rgb(100%, 85.487366%, 34.654236%)" offset="0.304687"/><stop stop-opacity="1" stop-color="rgb(100%, 85.144043%, 34.60083%)" offset="0.3125"/><stop stop-opacity="1" stop-color="rgb(100%, 84.799194%, 34.547424%)" offset="0.320312"/><stop stop-opacity="1" stop-color="rgb(100%, 84.455872%, 34.494019%)" offset="0.328125"/><stop stop-opacity="1" stop-color="rgb(100%, 84.112549%, 34.440613%)" offset="0.335937"/><stop stop-opacity="1" stop-color="rgb(100%, 83.7677%, 34.385681%)" offset="0.34375"/><stop stop-opacity="1" stop-color="rgb(100%, 83.424377%, 34.332275%)" offset="0.351562"/><stop stop-opacity="1" stop-color="rgb(100%, 83.079529%, 34.27887%)" offset="0.359375"/><stop stop-opacity="1" stop-color="rgb(100%, 82.736206%, 34.225464%)" offset="0.367188"/><stop stop-opacity="1" stop-color="rgb(100%, 82.392883%, 34.172058%)" offset="0.375"/><stop stop-opacity="1" stop-color="rgb(100%, 82.048035%, 34.118652%)" offset="0.382812"/><stop stop-opacity="1" stop-color="rgb(100%, 81.704712%, 34.065247%)" offset="0.390625"/><stop stop-opacity="1" stop-color="rgb(100%, 81.361389%, 34.011841%)" offset="0.398438"/><stop stop-opacity="1" stop-color="rgb(100%, 81.016541%, 33.958435%)" offset="0.40625"/><stop stop-opacity="1" stop-color="rgb(100%, 80.673218%, 33.905029%)" offset="0.414062"/><stop stop-opacity="1" stop-color="rgb(100%, 80.329895%, 33.851624%)" offset="0.421875"/><stop stop-opacity="1" stop-color="rgb(100%, 79.985046%, 33.798218%)" offset="0.429687"/><stop stop-opacity="1" stop-color="rgb(100%, 79.641724%, 33.744812%)" offset="0.4375"/><stop stop-opacity="1" stop-color="rgb(100%, 79.296875%, 33.691406%)" offset="0.445312"/><stop stop-opacity="1" stop-color="rgb(100%, 78.953552%, 33.636475%)" offset="0.453125"/><stop stop-opacity="1" stop-color="rgb(100%, 78.610229%, 33.583069%)" offset="0.460937"/><stop stop-opacity="1" stop-color="rgb(100%, 78.265381%, 33.529663%)" offset="0.46875"/><stop stop-opacity="1" stop-color="rgb(100%, 77.922058%, 33.476257%)" offset="0.476562"/><stop stop-opacity="1" stop-color="rgb(100%, 77.578735%, 33.422852%)" offset="0.484375"/><stop stop-opacity="1" stop-color="rgb(100%, 77.233887%, 33.369446%)" offset="0.492187"/><stop stop-opacity="1" stop-color="rgb(100%, 76.890564%, 33.31604%)" offset="0.5"/><stop stop-opacity="1" stop-color="rgb(100%, 76.547241%, 33.262634%)" offset="0.507812"/><stop stop-opacity="1" stop-color="rgb(100%, 76.202393%, 33.209229%)" offset="0.515625"/><stop stop-opacity="1" stop-color="rgb(100%, 75.85907%, 33.155823%)" offset="0.523438"/><stop stop-opacity="1" stop-color="rgb(100%, 75.514221%, 33.102417%)" offset="0.53125"/><stop stop-opacity="1" stop-color="rgb(100%, 75.170898%, 33.049011%)" offset="0.539062"/><stop stop-opacity="1" stop-color="rgb(100%, 74.827576%, 32.995605%)" offset="0.546875"/><stop stop-opacity="1" stop-color="rgb(100%, 74.482727%, 32.940674%)" offset="0.554688"/><stop stop-opacity="1" stop-color="rgb(100%, 74.139404%, 32.887268%)" offset="0.5625"/><stop stop-opacity="1" stop-color="rgb(100%, 73.796082%, 32.833862%)" offset="0.570312"/><stop stop-opacity="1" stop-color="rgb(100%, 73.451233%, 32.780457%)" offset="0.578125"/><stop stop-opacity="1" stop-color="rgb(100%, 73.10791%, 32.727051%)" offset="0.585938"/><stop stop-opacity="1" stop-color="rgb(100%, 72.764587%, 32.673645%)" offset="0.59375"/><stop stop-opacity="1" stop-color="rgb(100%, 72.419739%, 32.620239%)" offset="0.601562"/><stop stop-opacity="1" stop-color="rgb(100%, 72.076416%, 32.566833%)" offset="0.609375"/><stop stop-opacity="1" stop-color="rgb(100%, 71.733093%, 32.513428%)" offset="0.617187"/><stop stop-opacity="1" stop-color="rgb(100%, 71.388245%, 32.460022%)" offset="0.625"/><stop stop-opacity="1" stop-color="rgb(100%, 71.044922%, 32.406616%)" offset="0.632812"/><stop stop-opacity="1" stop-color="rgb(100%, 70.700073%, 32.35321%)" offset="0.640625"/><stop stop-opacity="1" stop-color="rgb(100%, 70.35675%, 32.299805%)" offset="0.648438"/><stop stop-opacity="1" stop-color="rgb(100%, 70.013428%, 32.246399%)" offset="0.65625"/><stop stop-opacity="1" stop-color="rgb(100%, 69.668579%, 32.191467%)" offset="0.664062"/><stop stop-opacity="1" stop-color="rgb(100%, 69.325256%, 32.138062%)" offset="0.671875"/><stop stop-opacity="1" stop-color="rgb(100%, 68.981934%, 32.084656%)" offset="0.679688"/><stop stop-opacity="1" stop-color="rgb(100%, 68.637085%, 32.03125%)" offset="0.6875"/><stop stop-opacity="1" stop-color="rgb(100%, 68.293762%, 31.977844%)" offset="0.695312"/><stop stop-opacity="1" stop-color="rgb(100%, 67.950439%, 31.924438%)" offset="0.703125"/><stop stop-opacity="1" stop-color="rgb(100%, 67.605591%, 31.871033%)" offset="0.710938"/><stop stop-opacity="1" stop-color="rgb(100%, 67.262268%, 31.817627%)" offset="0.71875"/><stop stop-opacity="1" stop-color="rgb(100%, 66.917419%, 31.764221%)" offset="0.726562"/><stop stop-opacity="1" stop-color="rgb(100%, 66.574097%, 31.710815%)" offset="0.734375"/><stop stop-opacity="1" stop-color="rgb(100%, 66.230774%, 31.65741%)" offset="0.742187"/><stop stop-opacity="1" stop-color="rgb(100%, 65.885925%, 31.604004%)" offset="0.75"/><stop stop-opacity="1" stop-color="rgb(100%, 65.542603%, 31.550598%)" offset="0.757812"/><stop stop-opacity="1" stop-color="rgb(100%, 65.19928%, 31.497192%)" offset="0.765625"/><stop stop-opacity="1" stop-color="rgb(100%, 64.854431%, 31.442261%)" offset="0.773437"/><stop stop-opacity="1" stop-color="rgb(100%, 64.511108%, 31.388855%)" offset="0.78125"/><stop stop-opacity="1" stop-color="rgb(100%, 64.167786%, 31.335449%)" offset="0.789062"/><stop stop-opacity="1" stop-color="rgb(100%, 63.822937%, 31.282043%)" offset="0.796875"/><stop stop-opacity="1" stop-color="rgb(100%, 63.479614%, 31.228638%)" offset="0.804687"/><stop stop-opacity="1" stop-color="rgb(100%, 63.134766%, 31.175232%)" offset="0.8125"/><stop stop-opacity="1" stop-color="rgb(100%, 62.791443%, 31.121826%)" offset="0.820312"/><stop stop-opacity="1" stop-color="rgb(100%, 62.44812%, 31.06842%)" offset="0.828125"/><stop stop-opacity="1" stop-color="rgb(100%, 62.103271%, 31.015015%)" offset="0.835937"/><stop stop-opacity="1" stop-color="rgb(100%, 61.759949%, 30.961609%)" offset="0.84375"/><stop stop-opacity="1" stop-color="rgb(100%, 61.416626%, 30.908203%)" offset="0.851562"/><stop stop-opacity="1" stop-color="rgb(100%, 61.071777%, 30.854797%)" offset="0.859375"/><stop stop-opacity="1" stop-color="rgb(100%, 60.728455%, 30.801392%)" offset="0.867187"/><stop stop-opacity="1" stop-color="rgb(100%, 60.385132%, 30.747986%)" offset="0.875"/><stop stop-opacity="1" stop-color="rgb(100%, 60.040283%, 30.693054%)" offset="0.882812"/><stop stop-opacity="1" stop-color="rgb(100%, 59.69696%, 30.639648%)" offset="0.890625"/><stop stop-opacity="1" stop-color="rgb(100%, 59.352112%, 30.586243%)" offset="0.898438"/><stop stop-opacity="1" stop-color="rgb(100%, 59.008789%, 30.532837%)" offset="0.90625"/><stop stop-opacity="1" stop-color="rgb(100%, 58.665466%, 30.479431%)" offset="0.914062"/><stop stop-opacity="1" stop-color="rgb(100%, 58.320618%, 30.426025%)" offset="0.921875"/><stop stop-opacity="1" stop-color="rgb(100%, 57.977295%, 30.37262%)" offset="0.929688"/><stop stop-opacity="1" stop-color="rgb(100%, 57.633972%, 30.319214%)" offset="0.9375"/><stop stop-opacity="1" stop-color="rgb(100%, 57.289124%, 30.265808%)" offset="0.945312"/><stop stop-opacity="1" stop-color="rgb(100%, 56.988525%, 30.218506%)" offset="0.953125"/><stop stop-opacity="1" stop-color="rgb(100%, 56.858826%, 30.198669%)" offset="0.96875"/><stop stop-opacity="1" stop-color="rgb(100%, 56.858826%, 30.198669%)" offset="1"/></linearGradient><clipPath id="767e0ee8a1"><rect x="0" width="375" y="0" height="205"/></clipPath><clipPath id="2c3e04cb85"><path d="M 0 0.5 L 375 0.5 L 375 204.5 L 0 204.5 Z M 0 0.5 " clip-rule="nonzero"/></clipPath><clipPath id="2bae4ebccf"><rect x="0" width="375" y="0" height="205"/></clipPath><clipPath id="e98a6b76b3"><rect x="0" width="375" y="0" height="205"/></clipPath><mask id="8a80f55444"><g filter="url(#1bb7ecafbb)"><g transform="matrix(1, 0, 0, 1, 0, 0)"><g clip-path="url(#e98a6b76b3)"><g clip-path="url(#2c3e04cb85)"><g transform="matrix(1, 0, 0, 1, 0, 0)"><g clip-path="url(#2bae4ebccf)"><g fill="#000000" fill-opacity="1"><g transform="translate(165.712502, 115.999987)"><g><path d="M 27.046875 -26.4375 L 27.046875 0 L 22.125 0 L 22.125 -11.328125 L 8.453125 -11.328125 L 8.453125 0 L 3.546875 0 L 3.546875 -26.4375 L 8.453125 -26.4375 L 8.453125 -15.515625 L 22.125 -15.515625 L 22.125 -26.4375 Z M 27.046875 -26.4375 "/></g></g></g><g fill="#000000" fill-opacity="1"><g transform="translate(198.222509, 115.999987)"><g><path d="M 22.0625 -9.96875 C 22.0625 -9.644531 22.035156 -9.179688 21.984375 -8.578125 L 6.15625 -8.578125 C 6.4375 -7.085938 7.160156 -5.90625 8.328125 -5.03125 C 9.492188 -4.164062 10.945312 -3.734375 12.6875 -3.734375 C 14.90625 -3.734375 16.734375 -4.460938 18.171875 -5.921875 L 20.703125 -3.015625 C 19.796875 -1.929688 18.648438 -1.113281 17.265625 -0.5625 C 15.878906 -0.0078125 14.316406 0.265625 12.578125 0.265625 C 10.359375 0.265625 8.40625 -0.171875 6.71875 -1.046875 C 5.03125 -1.929688 3.726562 -3.160156 2.8125 -4.734375 C 1.894531 -6.304688 1.4375 -8.085938 1.4375 -10.078125 C 1.4375 -12.046875 1.878906 -13.816406 2.765625 -15.390625 C 3.660156 -16.960938 4.898438 -18.1875 6.484375 -19.0625 C 8.078125 -19.945312 9.867188 -20.390625 11.859375 -20.390625 C 13.816406 -20.390625 15.570312 -19.953125 17.125 -19.078125 C 18.675781 -18.210938 19.882812 -16.992188 20.75 -15.421875 C 21.625 -13.847656 22.0625 -12.03125 22.0625 -9.96875 Z M 11.859375 -16.609375 C 10.347656 -16.609375 9.066406 -16.160156 8.015625 -15.265625 C 6.972656 -14.378906 6.34375 -13.191406 6.125 -11.703125 L 17.5625 -11.703125 C 17.363281 -13.160156 16.742188 -14.34375 15.703125 -15.25 C 14.671875 -16.15625 13.390625 -16.609375 11.859375 -16.609375 Z M 11.859375 -16.609375 "/></g></g></g><g fill="#000000" fill-opacity="1"><g transform="translate(223.634045, 115.999987)"><g><path d="M 10.796875 -20.390625 C 13.765625 -20.390625 16.035156 -19.675781 17.609375 -18.25 C 19.191406 -16.832031 19.984375 -14.691406 19.984375 -11.828125 L 19.984375 0 L 15.515625 0 L 15.515625 -2.453125 C 14.941406 -1.578125 14.117188 -0.90625 13.046875 -0.4375 C 11.972656 0.03125 10.679688 0.265625 9.171875 0.265625 C 7.660156 0.265625 6.335938 0.0078125 5.203125 -0.5 C 4.078125 -1.019531 3.203125 -1.738281 2.578125 -2.65625 C 1.960938 -3.582031 1.65625 -4.625 1.65625 -5.78125 C 1.65625 -7.59375 2.328125 -9.046875 3.671875 -10.140625 C 5.023438 -11.234375 7.148438 -11.78125 10.046875 -11.78125 L 15.25 -11.78125 L 15.25 -12.078125 C 15.25 -13.492188 14.828125 -14.578125 13.984375 -15.328125 C 13.148438 -16.085938 11.898438 -16.46875 10.234375 -16.46875 C 9.097656 -16.46875 7.984375 -16.289062 6.890625 -15.9375 C 5.796875 -15.582031 4.867188 -15.09375 4.109375 -14.46875 L 2.265625 -17.90625 C 3.328125 -18.707031 4.597656 -19.320312 6.078125 -19.75 C 7.566406 -20.175781 9.140625 -20.390625 10.796875 -20.390625 Z M 10.15625 -3.171875 C 11.34375 -3.171875 12.394531 -3.441406 13.3125 -3.984375 C 14.226562 -4.523438 14.875 -5.300781 15.25 -6.3125 L 15.25 -8.640625 L 10.390625 -8.640625 C 7.671875 -8.640625 6.3125 -7.75 6.3125 -5.96875 C 6.3125 -5.113281 6.648438 -4.429688 7.328125 -3.921875 C 8.003906 -3.421875 8.945312 -3.171875 10.15625 -3.171875 Z M 10.15625 -3.171875 "/></g></g></g><g fill="#000000" fill-opacity="1"><g transform="translate(248.479213, 115.999987)"><g><path d="M 3.09375 -28.015625 L 7.8125 -28.015625 L 7.8125 0 L 3.09375 0 Z M 3.09375 -28.015625 "/></g></g></g><g fill="#000000" fill-opacity="1"><g transform="translate(261.3174, 115.999987)"><g><path d="M 15.21875 -1.09375 C 14.664062 -0.644531 13.992188 -0.304688 13.203125 -0.078125 C 12.410156 0.148438 11.570312 0.265625 10.6875 0.265625 C 8.46875 0.265625 6.753906 -0.3125 5.546875 -1.46875 C 4.335938 -2.625 3.734375 -4.3125 3.734375 -6.53125 L 3.734375 -16.234375 L 0.421875 -16.234375 L 0.421875 -20.015625 L 3.734375 -20.015625 L 3.734375 -24.625 L 8.453125 -24.625 L 8.453125 -20.015625 L 13.859375 -20.015625 L 13.859375 -16.234375 L 8.453125 -16.234375 L 8.453125 -6.640625 C 8.453125 -5.660156 8.691406 -4.910156 9.171875 -4.390625 C 9.648438 -3.878906 10.34375 -3.625 11.25 -3.625 C 12.3125 -3.625 13.191406 -3.898438 13.890625 -4.453125 Z M 15.21875 -1.09375 "/></g></g></g><g fill="#000000" fill-opacity="1"><g transform="translate(279.252888, 115.999987)"><g><path d="M 14.546875 -20.390625 C 17.085938 -20.390625 19.125 -19.644531 20.65625 -18.15625 C 22.195312 -16.675781 22.96875 -14.476562 22.96875 -11.5625 L 22.96875 0 L 18.234375 0 L 18.234375 -10.953125 C 18.234375 -12.710938 17.816406 -14.039062 16.984375 -14.9375 C 16.160156 -15.832031 14.976562 -16.28125 13.4375 -16.28125 C 11.707031 -16.28125 10.335938 -15.753906 9.328125 -14.703125 C 8.316406 -13.660156 7.8125 -12.160156 7.8125 -10.203125 L 7.8125 0 L 3.09375 0 L 3.09375 -28.015625 L 7.8125 -28.015625 L 7.8125 -17.828125 C 8.59375 -18.660156 9.554688 -19.296875 10.703125 -19.734375 C 11.847656 -20.171875 13.128906 -20.390625 14.546875 -20.390625 Z M 14.546875 -20.390625 "/></g></g></g><g fill="#000000" fill-opacity="1"><g transform="translate(307.04317, 115.999987)"><g><path d="M 4.609375 0.265625 C 3.753906 0.265625 3.023438 -0.03125 2.421875 -0.625 C 1.816406 -1.21875 1.515625 -1.96875 1.515625 -2.875 C 1.515625 -3.800781 1.804688 -4.550781 2.390625 -5.125 C 2.984375 -5.707031 3.722656 -6 4.609375 -6 C 5.484375 -6 6.21875 -5.707031 6.8125 -5.125 C 7.40625 -4.550781 7.703125 -3.800781 7.703125 -2.875 C 7.703125 -1.96875 7.398438 -1.21875 6.796875 -0.625 C 6.191406 -0.03125 5.460938 0.265625 4.609375 0.265625 Z M 4.609375 0.265625 "/></g></g></g><g fill="#000000" fill-opacity="1"><g transform="translate(318.182253, 115.999987)"><g><path d="M 20.703125 -6.125 L 7.484375 -6.125 L 4.875 0 L -0.1875 0 L 11.703125 -26.4375 L 16.546875 -26.4375 L 28.46875 0 L 23.34375 0 Z M 19.078125 -9.96875 L 14.09375 -21.53125 L 9.140625 -9.96875 Z M 19.078125 -9.96875 "/></g></g></g><g fill="#000000" fill-opacity="1"><g transform="translate(348.389034, 115.999987)"><g><path d="M 3.09375 -20.171875 L 7.8125 -20.171875 L 7.8125 0 L 3.09375 0 Z M 5.484375 -23.484375 C 4.628906 -23.484375 3.910156 -23.753906 3.328125 -24.296875 C 2.753906 -24.835938 2.46875 -25.515625 2.46875 -26.328125 C 2.46875 -27.128906 2.753906 -27.800781 3.328125 -28.34375 C 3.910156 -28.882812 4.628906 -29.15625 5.484375 -29.15625 C 6.335938 -29.15625 7.050781 -28.894531 7.625 -28.375 C 8.207031 -27.863281 8.5 -27.21875 8.5 -26.4375 C 8.5 -25.601562 8.210938 -24.898438 7.640625 -24.328125 C 7.078125 -23.765625 6.359375 -23.484375 5.484375 -23.484375 Z M 5.484375 -23.484375 "/></g></g></g></g></g></g></g></g></g></mask><clipPath id="e4b9627447"><path d="M 90.117188 3.5 L 375 3.5 L 375 200.75 L 90.117188 200.75 Z M 90.117188 3.5 " clip-rule="nonzero"/></clipPath><clipPath id="01bea92224"><rect x="0" width="375" y="0" height="205"/></clipPath><clipPath id="abf5c275b8"><rect x="0" width="375" y="0" height="205"/></clipPath></defs><g fill="#ffffff" fill-opacity="1"><g transform="translate(15.68907, 200.999987)"><g><path d="M 8.90625 -22.28125 L 0.15625 -22.28125 L 0.15625 -26.4375 L 22.578125 -26.4375 L 22.578125 -22.28125 L 13.828125 -22.28125 L 13.828125 0 L 8.90625 0 Z M 8.90625 -22.28125 "/></g></g></g><g fill="#ffffff" fill-opacity="1"><g transform="translate(40.345456, 200.999987)"><g><path d="M 14.546875 -20.390625 C 17.085938 -20.390625 19.125 -19.644531 20.65625 -18.15625 C 22.195312 -16.675781 22.96875 -14.476562 22.96875 -11.5625 L 22.96875 0 L 18.234375 0 L 18.234375 -10.953125 C 18.234375 -12.710938 17.816406 -14.039062 16.984375 -14.9375 C 16.160156 -15.832031 14.976562 -16.28125 13.4375 -16.28125 C 11.707031 -16.28125 10.335938 -15.753906 9.328125 -14.703125 C 8.316406 -13.660156 7.8125 -12.160156 7.8125 -10.203125 L 7.8125 0 L 3.09375 0 L 3.09375 -28.015625 L 7.8125 -28.015625 L 7.8125 -17.828125 C 8.59375 -18.660156 9.554688 -19.296875 10.703125 -19.734375 C 11.847656 -20.171875 13.128906 -20.390625 14.546875 -20.390625 Z M 14.546875 -20.390625 "/></g></g></g><g fill="#ffffff" fill-opacity="1"><g transform="translate(68.135737, 200.999987)"><g><path d="M 7.59375 -17.21875 C 8.945312 -19.332031 11.335938 -20.390625 14.765625 -20.390625 L 14.765625 -15.90625 C 14.359375 -15.976562 13.992188 -16.015625 13.671875 -16.015625 C 11.835938 -16.015625 10.398438 -15.476562 9.359375 -14.40625 C 8.328125 -13.332031 7.8125 -11.789062 7.8125 -9.78125 L 7.8125 0 L 3.09375 0 L 3.09375 -20.171875 L 7.59375 -20.171875 Z M 7.59375 -17.21875 "/></g></g></g><g fill="#ffffff" fill-opacity="1"><g transform="translate(85.920198, 200.999987)"><g><path d="M 3.09375 -20.171875 L 7.8125 -20.171875 L 7.8125 0 L 3.09375 0 Z M 5.484375 -23.484375 C 4.628906 -23.484375 3.910156 -23.753906 3.328125 -24.296875 C 2.753906 -24.835938 2.46875 -25.515625 2.46875 -26.328125 C 2.46875 -27.128906 2.753906 -27.800781 3.328125 -28.34375 C 3.910156 -28.882812 4.628906 -29.15625 5.484375 -29.15625 C 6.335938 -29.15625 7.050781 -28.894531 7.625 -28.375 C 8.207031 -27.863281 8.5 -27.21875 8.5 -26.4375 C 8.5 -25.601562 8.210938 -24.898438 7.640625 -24.328125 C 7.078125 -23.765625 6.359375 -23.484375 5.484375 -23.484375 Z M 5.484375 -23.484375 "/></g></g></g><g fill="#ffffff" fill-opacity="1"><g transform="translate(98.758385, 200.999987)"><g><path d="M 21.984375 -20.171875 L 13.328125 0 L 8.453125 0 L -0.1875 -20.171875 L 4.71875 -20.171875 L 10.984375 -5.21875 L 17.453125 -20.171875 Z M 21.984375 -20.171875 "/></g></g></g><g fill="#ffffff" fill-opacity="1"><g transform="translate(122.508582, 200.999987)"><g><path d="M 22.0625 -9.96875 C 22.0625 -9.644531 22.035156 -9.179688 21.984375 -8.578125 L 6.15625 -8.578125 C 6.4375 -7.085938 7.160156 -5.90625 8.328125 -5.03125 C 9.492188 -4.164062 10.945312 -3.734375 12.6875 -3.734375 C 14.90625 -3.734375 16.734375 -4.460938 18.171875 -5.921875 L 20.703125 -3.015625 C 19.796875 -1.929688 18.648438 -1.113281 17.265625 -0.5625 C 15.878906 -0.0078125 14.316406 0.265625 12.578125 0.265625 C 10.359375 0.265625 8.40625 -0.171875 6.71875 -1.046875 C 5.03125 -1.929688 3.726562 -3.160156 2.8125 -4.734375 C 1.894531 -6.304688 1.4375 -8.085938 1.4375 -10.078125 C 1.4375 -12.046875 1.878906 -13.816406 2.765625 -15.390625 C 3.660156 -16.960938 4.898438 -18.1875 6.484375 -19.0625 C 8.078125 -19.945312 9.867188 -20.390625 11.859375 -20.390625 C 13.816406 -20.390625 15.570312 -19.953125 17.125 -19.078125 C 18.675781 -18.210938 19.882812 -16.992188 20.75 -15.421875 C 21.625 -13.847656 22.0625 -12.03125 22.0625 -9.96875 Z M 11.859375 -16.609375 C 10.347656 -16.609375 9.066406 -16.160156 8.015625 -15.265625 C 6.972656 -14.378906 6.34375 -13.191406 6.125 -11.703125 L 17.5625 -11.703125 C 17.363281 -13.160156 16.742188 -14.34375 15.703125 -15.25 C 14.671875 -16.15625 13.390625 -16.609375 11.859375 -16.609375 Z M 11.859375 -16.609375 "/></g></g></g><g fill="#ffffff" fill-opacity="1"><g transform="translate(147.920118, 200.999987)"><g><path d="M 7.59375 -17.21875 C 8.945312 -19.332031 11.335938 -20.390625 14.765625 -20.390625 L 14.765625 -15.90625 C 14.359375 -15.976562 13.992188 -16.015625 13.671875 -16.015625 C 11.835938 -16.015625 10.398438 -15.476562 9.359375 -14.40625 C 8.328125 -13.332031 7.8125 -11.789062 7.8125 -9.78125 L 7.8125 0 L 3.09375 0 L 3.09375 -20.171875 L 7.59375 -20.171875 Z M 7.59375 -17.21875 "/></g></g></g><g clip-path="url(#23e38c8a0e)"><g transform="matrix(1, 0, 0, 1, 0, 85)"><g clip-path="url(#abf5c275b8)"><g clip-path="url(#8c6e57054f)"><g mask="url(#8a80f55444)"><g transform="matrix(1, 0, 0, 1, 0, 0)"><g clip-path="url(#01bea92224)"><g clip-path="url(#e4b9627447)"><path fill="url(#e705867d89)" d="M 90.117188 3.5 L 90.117188 200.75 L 375 200.75 L 375 3.5 Z M 90.117188 3.5 " fill-rule="nonzero"/></g></g></g></g></g></g></g></g></svg>